<svg class="marks" width="665" height="199" viewBox="0 0 665 199" version="1.1" xmlns="http://www.w3.org/2000/svg" xmlns:xlink="http://www.w3.org/1999/xlink"><style>* { fill: none; } tspan { fill: inherit; } path { stroke-miterlimit: 10; }</style><rect width="665" height="199" style="fill: white;"></rect><g transform="translate(48,5)"><g class="mark-group role-frame root" role="graphics-object" aria-roledescription="group mark container"><g transform="translate(0,0)"><path class="background" aria-hidden="true" d="M0.5,0.5h480v140h-480Z" style="stroke: #ddd;"></path><g><g class="mark-group role-axis" role="graphics-symbol" aria-roledescription="axis" aria-label="X-axis titled 'time (hours)' for a discrete scale with 24 values: 00:00, 01:00, 02:00, 03:00, 04:00, ending with 23:00"><g transform="translate(0.5,140.5)"><path class="background" aria-hidden="true" d="M0,0h0v0h0Z" style="pointer-events: none;"></path><g><g class="mark-rule role-axis-tick" style="pointer-events: none;"><line transform="translate(10,0)" x2="0" y2="5" style="stroke: #888; stroke-width: 1; opacity: 1;"></line><line transform="translate(30,0)" x2="0" y2="5" style="stroke: #888; stroke-width: 1; opacity: 1;"></line><line transform="translate(50,0)" x2="0" y2="5" style="stroke: #888; stroke-width: 1; opacity: 1;"></line><line transform="translate(70,0)" x2="0" y2="5" style="stroke: #888; stroke-width: 1; opacity: 1;"></line><line transform="translate(90,0)" x2="0" y2="5" style="stroke: #888; stroke-width: 1; opacity: 1;"></line><line transform="translate(110,0)" x2="0" y2="5" style="stroke: #888; stroke-width: 1; opacity: 1;"></line><line transform="translate(130,0)" x2="0" y2="5" style="stroke: #888; stroke-width: 1; opacity: 1;"></line><line transform="translate(150,0)" x2="0" y2="5" style="stroke: #888; stroke-width: 1; opacity: 1;"></line><line transform="translate(170,0)" x2="0" y2="5" style="stroke: #888; stroke-width: 1; opacity: 1;"></line><line transform="translate(190,0)" x2="0" y2="5" style="stroke: #888; stroke-width: 1; opacity: 1;"></line><line transform="translate(210,0)" x2="0" y2="5" style="stroke: #888; stroke-width: 1; opacity: 1;"></line><line transform="translate(230,0)" x2="0" y2="5" style="stroke: #888; stroke-width: 1; opacity: 1;"></line><line transform="translate(250,0)" x2="0" y2="5" style="stroke: #888; stroke-width: 1; opacity: 1;"></line><line transform="translate(270,0)" x2="0" y2="5" style="stroke: #888; stroke-width: 1; opacity: 1;"></line><line transform="translate(290,0)" x2="0" y2="5" style="stroke: #888; stroke-width: 1; opacity: 1;"></line><line transform="translate(310,0)" x2="0" y2="5" style="stroke: #888; stroke-width: 1; opacity: 1;"></line><line transform="translate(330,0)" x2="0" y2="5" style="stroke: #888; stroke-width: 1; opacity: 1;"></line><line transform="translate(350,0)" x2="0" y2="5" style="stroke: #888; stroke-width: 1; opacity: 1;"></line><line transform="translate(370,0)" x2="0" y2="5" style="stroke: #888; stroke-width: 1; opacity: 1;"></line><line transform="translate(390,0)" x2="0" y2="5" style="stroke: #888; stroke-width: 1; opacity: 1;"></line><line transform="translate(410,0)" x2="0" y2="5" style="stroke: #888; stroke-width: 1; opacity: 1;"></line><line transform="translate(430,0)" x2="0" y2="5" style="stroke: #888; stroke-width: 1; opacity: 1;"></line><line transform="translate(450,0)" x2="0" y2="5" style="stroke: #888; stroke-width: 1; opacity: 1;"></line><line transform="translate(470,0)" x2="0" y2="5" style="stroke: #888; stroke-width: 1; opacity: 1;"></line></g><g class="mark-text role-axis-label" style="pointer-events: none;"><text text-anchor="end" transform="translate(10,7) rotate(270) translate(0,3)" style="font-family: sans-serif; font-size: 10px; fill: #000; opacity: 1;">00:00</text><text text-anchor="end" transform="translate(30,7) rotate(270) translate(0,3)" style="font-family: sans-serif; font-size: 10px; fill: #000; opacity: 1;">01:00</text><text text-anchor="end" transform="translate(50,7) rotate(270) translate(0,3)" style="font-family: sans-serif; font-size: 10px; fill: #000; opacity: 1;">02:00</text><text text-anchor="end" transform="translate(70,7) rotate(270) translate(0,3)" style="font-family: sans-serif; font-size: 10px; fill: #000; opacity: 1;">03:00</text><text text-anchor="end" transform="translate(90,7) rotate(270) translate(0,3)" style="font-family: sans-serif; font-size: 10px; fill: #000; opacity: 1;">04:00</text><text text-anchor="end" transform="translate(110,7) rotate(270) translate(0,3)" style="font-family: sans-serif; font-size: 10px; fill: #000; opacity: 1;">05:00</text><text text-anchor="end" transform="translate(130,7) rotate(270) translate(0,3)" style="font-family: sans-serif; font-size: 10px; fill: #000; opacity: 1;">06:00</text><text text-anchor="end" transform="translate(150,7) rotate(270) translate(0,3)" style="font-family: sans-serif; font-size: 10px; fill: #000; opacity: 1;">07:00</text><text text-anchor="end" transform="translate(170,7) rotate(270) translate(0,3)" style="font-family: sans-serif; font-size: 10px; fill: #000; opacity: 1;">08:00</text><text text-anchor="end" transform="translate(190,7) rotate(270) translate(0,3)" style="font-family: sans-serif; font-size: 10px; fill: #000; opacity: 1;">09:00</text><text text-anchor="end" transform="translate(210,7) rotate(270) translate(0,3)" style="font-family: sans-serif; font-size: 10px; fill: #000; opacity: 1;">10:00</text><text text-anchor="end" transform="translate(230,7) rotate(270) translate(0,3)" style="font-family: sans-serif; font-size: 10px; fill: #000; opacity: 1;">11:00</text><text text-anchor="end" transform="translate(250,7) rotate(270) translate(0,3)" style="font-family: sans-serif; font-size: 10px; fill: #000; opacity: 1;">12:00</text><text text-anchor="end" transform="translate(270,7) rotate(270) translate(0,3)" style="font-family: sans-serif; font-size: 10px; fill: #000; opacity: 1;">13:00</text><text text-anchor="end" transform="translate(290,7) rotate(270) translate(0,3)" style="font-family: sans-serif; font-size: 10px; fill: #000; opacity: 1;">14:00</text><text text-anchor="end" transform="translate(310,7) rotate(270) translate(0,3)" style="font-family: sans-serif; font-size: 10px; fill: #000; opacity: 1;">15:00</text><text text-anchor="end" transform="translate(330,7) rotate(270) translate(0,3)" style="font-family: sans-serif; font-size: 10px; fill: #000; opacity: 1;">16:00</text><text text-anchor="end" transform="translate(350,7) rotate(270) translate(0,3)" style="font-family: sans-serif; font-size: 10px; fill: #000; opacity: 1;">17:00</text><text text-anchor="end" transform="translate(370,7) rotate(270) translate(0,3)" style="font-family: sans-serif; font-size: 10px; fill: #000; opacity: 1;">18:00</text><text text-anchor="end" transform="translate(390,7) rotate(270) translate(0,3)" style="font-family: sans-serif; font-size: 10px; fill: #000; opacity: 1;">19:00</text><text text-anchor="end" transform="translate(410,7) rotate(270) translate(0,3)" style="font-family: sans-serif; font-size: 10px; fill: #000; opacity: 1;">20:00</text><text text-anchor="end" transform="translate(430,7) rotate(270) translate(0,3)" style="font-family: sans-serif; font-size: 10px; fill: #000; opacity: 1;">21:00</text><text text-anchor="end" transform="translate(450,7) rotate(270) translate(0,3)" style="font-family: sans-serif; font-size: 10px; fill: #000; opacity: 1;">22:00</text><text text-anchor="end" transform="translate(470,7) rotate(270) translate(0,3)" style="font-family: sans-serif; font-size: 10px; fill: #000; opacity: 1;">23:00</text></g><g class="mark-rule role-axis-domain" style="pointer-events: none;"><line transform="translate(0,0)" x2="480" y2="0" style="stroke: #888; stroke-width: 1; opacity: 1;"></line></g><g class="mark-text role-axis-title" style="pointer-events: none;"><text text-anchor="middle" transform="translate(240,47)" style="font-family: sans-serif; font-size: 11px; font-weight: bold; fill: #000; opacity: 1;">time (hours)</text></g></g><path class="foreground" aria-hidden="true" d="" style="pointer-events: none; display: none;"></path></g></g><g class="mark-group role-axis" role="graphics-symbol" aria-roledescription="axis" aria-label="Y-axis titled 'time (day)' for a discrete scale with 7 values: Monday, Tuesday, Wednesday, Thursday, Friday, Saturday, Sunday"><g transform="translate(0.5,0.5)"><path class="background" aria-hidden="true" d="M0,0h0v0h0Z" style="pointer-events: none;"></path><g><g class="mark-rule role-axis-tick" style="pointer-events: none;"><line transform="translate(0,10)" x2="-5" y2="0" style="stroke: #888; stroke-width: 1; opacity: 1;"></line><line transform="translate(0,30)" x2="-5" y2="0" style="stroke: #888; stroke-width: 1; opacity: 1;"></line><line transform="translate(0,50)" x2="-5" y2="0" style="stroke: #888; stroke-width: 1; opacity: 1;"></line><line transform="translate(0,70)" x2="-5" y2="0" style="stroke: #888; stroke-width: 1; opacity: 1;"></line><line transform="translate(0,90)" x2="-5" y2="0" style="stroke: #888; stroke-width: 1; opacity: 1;"></line><line transform="translate(0,110)" x2="-5" y2="0" style="stroke: #888; stroke-width: 1; opacity: 1;"></line><line transform="translate(0,130)" x2="-5" y2="0" style="stroke: #888; stroke-width: 1; opacity: 1;"></line></g><g class="mark-text role-axis-label" style="pointer-events: none;"><text text-anchor="end" transform="translate(-7,13)" style="font-family: sans-serif; font-size: 10px; fill: #000; opacity: 1;">Mon</text><text text-anchor="end" transform="translate(-7,33)" style="font-family: sans-serif; font-size: 10px; fill: #000; opacity: 1;">Tue</text><text text-anchor="end" transform="translate(-7,53)" style="font-family: sans-serif; font-size: 10px; fill: #000; opacity: 1;">Wed</text><text text-anchor="end" transform="translate(-7,73)" style="font-family: sans-serif; font-size: 10px; fill: #000; opacity: 1;">Thu</text><text text-anchor="end" transform="translate(-7,93)" style="font-family: sans-serif; font-size: 10px; fill: #000; opacity: 1;">Fri</text><text text-anchor="end" transform="translate(-7,113)" style="font-family: sans-serif; font-size: 10px; fill: #000; opacity: 1;">Sat</text><text text-anchor="end" transform="translate(-7,133)" style="font-family: sans-serif; font-size: 10px; fill: #000; opacity: 1;">Sun</text></g><g class="mark-rule role-axis-domain" style="pointer-events: none;"><line transform="translate(0,0)" x2="0" y2="140" style="stroke: #888; stroke-width: 1; opacity: 1;"></line></g><g class="mark-text role-axis-title" style="pointer-events: none;"><text text-anchor="middle" transform="translate(-32,70) rotate(-90) translate(0,-2)" style="font-family: sans-serif; font-size: 11px; font-weight: bold; fill: #000; opacity: 1;">time (day)</text></g></g><path class="foreground" aria-hidden="true" d="" style="pointer-events: none; display: none;"></path></g></g><g class="mark-symbol role-mark marks" role="graphics-object" aria-roledescription="symbol mark container"><path aria-label="time (day): Thu; time (hours): 01:00; Sum of count: 21412112" role="graphics-symbol" aria-roledescription="circle" transform="translate(30,70)" d="M0.03025483069407023,0A0.03025483069407023,0.03025483069407023,0,1,1,-0.03025483069407023,0A0.03025483069407023,0.03025483069407023,0,1,1,0.03025483069407023,0" style="fill: #4c78a8; stroke-width: 2;"></path><path aria-label="time (day): Thu; time (hours): 04:00; Sum of count: 31111" role="graphics-symbol" aria-roledescription="circle" transform="translate(90,70)" d="M0.0011532460059918456,0A0.0011532460059918456,0.0011532460059918456,0,1,1,-0.0011532460059918456,0A0.0011532460059918456,0.0011532460059918456,0,1,1,0.0011532460059918456,0" style="fill: #4c78a8; stroke-width: 2;"></path><path aria-label="time (day): Thu; time (hours): 05:00; Sum of count: 122131" role="graphics-symbol" aria-roledescription="circle" transform="translate(110,70)" d="M0.0022849564670846803,0A0.0022849564670846803,0.0022849564670846803,0,1,1,-0.0022849564670846803,0A0.0022849564670846803,0.0022849564670846803,0,1,1,0.0022849564670846803,0" style="fill: #4c78a8; stroke-width: 2;"></path><path aria-label="time (day): Thu; time (hours): 08:00; Sum of count: 16211" role="graphics-symbol" aria-roledescription="circle" transform="translate(170,70)" d="M0.0008324724631827064,0A0.0008324724631827064,0.0008324724631827064,0,1,1,-0.0008324724631827064,0A0.0008324724631827064,0.0008324724631827064,0,1,1,0.0008324724631827064,0" style="fill: #4c78a8; stroke-width: 2;"></path><path aria-label="time (day): Thu; time (hours): 09:00; Sum of count: 3221111" role="graphics-symbol" aria-roledescription="circle" transform="translate(190,70)" d="M0.01173458727237059,0A0.01173458727237059,0.01173458727237059,0,1,1,-0.01173458727237059,0A0.01173458727237059,0.01173458727237059,0,1,1,0.01173458727237059,0" style="fill: #4c78a8; stroke-width: 2;"></path><path aria-label="time (day): Thu; time (hours): 11:00; Sum of count: 1113252" role="graphics-symbol" aria-roledescription="circle" transform="translate(230,70)" d="M0.006898611940747425,0A0.006898611940747425,0.006898611940747425,0,1,1,-0.006898611940747425,0A0.006898611940747425,0.006898611940747425,0,1,1,0.006898611940747425,0" style="fill: #4c78a8; stroke-width: 2;"></path><path aria-label="time (day): Thu; time (hours): 14:00; Sum of count: 32821" role="graphics-symbol" aria-roledescription="circle" transform="translate(290,70)" d="M0.0011845158553290497,0A0.0011845158553290497,0.0011845158553290497,0,1,1,-0.0011845158553290497,0A0.0011845158553290497,0.0011845158553290497,0,1,1,0.0011845158553290497,0" style="fill: #4c78a8; stroke-width: 2;"></path><path aria-label="time (day): Thu; time (hours): 19:00; Sum of count: 11221" role="graphics-symbol" aria-roledescription="circle" transform="translate(390,70)" d="M0.0006925972374615666,0A0.0006925972374615666,0.0006925972374615666,0,1,1,-0.0006925972374615666,0A0.0006925972374615666,0.0006925972374615666,0,1,1,0.0006925972374615666,0" style="fill: #4c78a8; stroke-width: 2;"></path><path aria-label="time (day): Thu; time (hours): 22:00; Sum of count: 11212" role="graphics-symbol" aria-roledescription="circle" transform="translate(450,70)" d="M0.0006923194268593189,0A0.0006923194268593189,0.0006923194268593189,0,1,1,-0.0006923194268593189,0A0.0006923194268593189,0.0006923194268593189,0,1,1,0.0006923194268593189,0" style="fill: #4c78a8; stroke-width: 2;"></path><path aria-label="time (day): Fri; time (hours): 01:00; Sum of count: 212141111" role="graphics-symbol" aria-roledescription="circle" transform="translate(30,90)" d="M0.09523079135110088,0A0.09523079135110088,0.09523079135110088,0,1,1,-0.09523079135110088,0A0.09523079135110088,0.09523079135110088,0,1,1,0.09523079135110088,0" style="fill: #4c78a8; stroke-width: 2;"></path><path aria-label="time (day): Fri; time (hours): 09:00; Sum of count: 113114261111" role="graphics-symbol" aria-roledescription="circle" transform="translate(190,90)" d="M2.198992029671406,0A2.198992029671406,2.198992029671406,0,1,1,-2.198992029671406,0A2.198992029671406,2.198992029671406,0,1,1,2.198992029671406,0" style="fill: #4c78a8; stroke-width: 2;"></path><path aria-label="time (day): Fri; time (hours): 10:00; Sum of count: 313111122" role="graphics-symbol" aria-roledescription="circle" transform="translate(210,90)" d="M0.11569490158687679,0A0.11569490158687679,0.11569490158687679,0,1,1,-0.11569490158687679,0A0.11569490158687679,0.11569490158687679,0,1,1,0.11569490158687679,0" style="fill: #4c78a8; stroke-width: 2;"></path><path aria-label="time (day): Fri; time (hours): 12:00; Sum of count: 2144121" role="graphics-symbol" aria-roledescription="circle" transform="translate(250,90)" d="M0.00957391613787206,0A0.00957391613787206,0.00957391613787206,0,1,1,-0.00957391613787206,0A0.00957391613787206,0.00957391613787206,0,1,1,0.00957391613787206,0" style="fill: #4c78a8; stroke-width: 2;"></path><path aria-label="time (day): Fri; time (hours): 13:00; Sum of count: 216223" role="graphics-symbol" aria-roledescription="circle" transform="translate(270,90)" d="M0.003040296350093949,0A0.003040296350093949,0.003040296350093949,0,1,1,-0.003040296350093949,0A0.003040296350093949,0.003040296350093949,0,1,1,0.003040296350093949,0" style="fill: #4c78a8; stroke-width: 2;"></path><path aria-label="time (day): Fri; time (hours): 21:00; Sum of count: 311" role="graphics-symbol" aria-roledescription="circle" transform="translate(430,90)" d="M0.00011530421098201702,0A0.00011530421098201702,0.00011530421098201702,0,1,1,-0.00011530421098201702,0A0.00011530421098201702,0.00011530421098201702,0,1,1,0.00011530421098201702,0" style="fill: #4c78a8; stroke-width: 2;"></path><path aria-label="time (day): Fri; time (hours): 23:00; Sum of count: 1571111" role="graphics-symbol" aria-roledescription="circle" transform="translate(470,90)" d="M0.008195367033491184,0A0.008195367033491184,0.008195367033491184,0,1,1,-0.008195367033491184,0A0.008195367033491184,0.008195367033491184,0,1,1,0.008195367033491184,0" style="fill: #4c78a8; stroke-width: 2;"></path><path aria-label="time (day): Sat; time (hours): 00:00; Sum of count: 219122414110" role="graphics-symbol" aria-roledescription="circle" transform="translate(10,110)" d="M3.0606126981746735,0A3.0606126981746735,3.0606126981746735,0,1,1,-3.0606126981746735,0A3.0606126981746735,3.0606126981746735,0,1,1,3.0606126981746735,0" style="fill: #4c78a8; stroke-width: 2;"></path><path aria-label="time (day): Sat; time (hours): 08:00; Sum of count: 213121" role="graphics-symbol" aria-roledescription="circle" transform="translate(170,110)" d="M0.0030184090645293264,0A0.0030184090645293264,0.0030184090645293264,0,1,1,-0.0030184090645293264,0A0.0030184090645293264,0.0030184090645293264,0,1,1,0.0030184090645293264,0" style="fill: #4c78a8; stroke-width: 2;"></path><path aria-label="time (day): Sat; time (hours): 10:00; Sum of count: 11221151" role="graphics-symbol" aria-roledescription="circle" transform="translate(210,110)" d="M0.02190199508030404,0A0.02190199508030404,0.02190199508030404,0,1,1,-0.02190199508030404,0A0.02190199508030404,0.02190199508030404,0,1,1,0.02190199508030404,0" style="fill: #4c78a8; stroke-width: 2;"></path><path aria-label="time (day): Sat; time (hours): 12:00; Sum of count: 2215111" role="graphics-symbol" aria-roledescription="circle" transform="translate(250,110)" d="M0.009731117591992968,0A0.009731117591992968,0.009731117591992968,0,1,1,-0.009731117591992968,0A0.009731117591992968,0.009731117591992968,0,1,1,0.009731117591992968,0" style="fill: #4c78a8; stroke-width: 2;"></path><path aria-label="time (day): Sat; time (hours): 13:00; Sum of count: 23141211" role="graphics-symbol" aria-roledescription="circle" transform="translate(270,110)" d="M0.031452705959331105,0A0.031452705959331105,0.031452705959331105,0,1,1,-0.031452705959331105,0A0.031452705959331105,0.031452705959331105,0,1,1,0.031452705959331105,0" style="fill: #4c78a8; stroke-width: 2;"></path><path aria-label="time (day): Sat; time (hours): 17:00; Sum of count: 151111311" role="graphics-symbol" aria-roledescription="circle" transform="translate(350,110)" d="M0.08037360727523318,0A0.08037360727523318,0.08037360727523318,0,1,1,-0.08037360727523318,0A0.08037360727523318,0.08037360727523318,0,1,1,0.08037360727523318,0" style="fill: #4c78a8; stroke-width: 2;"></path><path aria-label="time (day): Sat; time (hours): 18:00; Sum of count: 114417" role="graphics-symbol" aria-roledescription="circle" transform="translate(370,110)" d="M0.0022116186928719185,0A0.0022116186928719185,0.0022116186928719185,0,1,1,-0.0022116186928719185,0A0.0022116186928719185,0.0022116186928719185,0,1,1,0.0022116186928719185,0" style="fill: #4c78a8; stroke-width: 2;"></path><path aria-label="time (day): Sat; time (hours): 21:00; Sum of count: 21385" role="graphics-symbol" aria-roledescription="circle" transform="translate(430,110)" d="M0.0009561358474595333,0A0.0009561358474595333,0.0009561358474595333,0,1,1,-0.0009561358474595333,0A0.0009561358474595333,0.0009561358474595333,0,1,1,0.0009561358474595333,0" style="fill: #4c78a8; stroke-width: 2;"></path><path aria-label="time (day): Sat; time (hours): 22:00; Sum of count: 2121155" role="graphics-symbol" aria-roledescription="circle" transform="translate(450,110)" d="M0.009522504274961168,0A0.009522504274961168,0.009522504274961168,0,1,1,-0.009522504274961168,0A0.009522504274961168,0.009522504274961168,0,1,1,0.009522504274961168,0" style="fill: #4c78a8; stroke-width: 2;"></path><path aria-label="time (day): Sun; time (hours): 00:00; Sum of count: 23111" role="graphics-symbol" aria-roledescription="circle" transform="translate(10,130)" d="M0.0009939724393900789,0A0.0009939724393900789,0.0009939724393900789,0,1,1,-0.0009939724393900789,0A0.0009939724393900789,0.0009939724393900789,0,1,1,0.0009939724393900789,0" style="fill: #4c78a8; stroke-width: 2;"></path><path aria-label="time (day): Sun; time (hours): 13:00; Sum of count: 1412" role="graphics-symbol" aria-roledescription="circle" transform="translate(270,130)" d="M0.0002456870819196497,0A0.0002456870819196497,0.0002456870819196497,0,1,1,-0.0002456870819196497,0A0.0002456870819196497,0.0002456870819196497,0,1,1,0.0002456870819196497,0" style="fill: #4c78a8; stroke-width: 2;"></path><path aria-label="time (day): Sun; time (hours): 15:00; Sum of count: 13116" role="graphics-symbol" aria-roledescription="circle" transform="translate(310,130)" d="M0.0007487997276597108,0A0.0007487997276597108,0.0007487997276597108,0,1,1,-0.0007487997276597108,0A0.0007487997276597108,0.0007487997276597108,0,1,1,0.0007487997276597108,0" style="fill: #4c78a8; stroke-width: 2;"></path><path aria-label="time (day): Sun; time (hours): 19:00; Sum of count: 1221452141" role="graphics-symbol" aria-roledescription="circle" transform="translate(390,130)" d="M0.2285089429456134,0A0.2285089429456134,0.2285089429456134,0,1,1,-0.2285089429456134,0A0.2285089429456134,0.2285089429456134,0,1,1,0.2285089429456134,0" style="fill: #4c78a8; stroke-width: 2;"></path><path aria-label="time (day): Sun; time (hours): 20:00; Sum of count: 6121" role="graphics-symbol" aria-roledescription="circle" transform="translate(410,130)" d="M0.0005115359533262104,0A0.0005115359533262104,0.0005115359533262104,0,1,1,-0.0005115359533262104,0A0.0005115359533262104,0.0005115359533262104,0,1,1,0.0005115359533262104,0" style="fill: #4c78a8; stroke-width: 2;"></path><path aria-label="time (day): Sun; time (hours): 21:00; Sum of count: 2812119" role="graphics-symbol" aria-roledescription="circle" transform="translate(430,130)" d="M0.010964323002903106,0A0.010964323002903106,0.010964323002903106,0,1,1,-0.010964323002903106,0A0.010964323002903106,0.010964323002903106,0,1,1,0.010964323002903106,0" style="fill: #4c78a8; stroke-width: 2;"></path><path aria-label="time (day): Mon; time (hours): 04:00; Sum of count: 111611" role="graphics-symbol" aria-roledescription="circle" transform="translate(90,10)" d="M0.002184331121254574,0A0.002184331121254574,0.002184331121254574,0,1,1,-0.002184331121254574,0A0.002184331121254574,0.002184331121254574,0,1,1,0.002184331121254574,0" style="fill: #4c78a8; stroke-width: 2;"></path><path aria-label="time (day): Mon; time (hours): 06:00; Sum of count: 3111117" role="graphics-symbol" aria-roledescription="circle" transform="translate(130,10)" d="M0.011532491568316322,0A0.011532491568316322,0.011532491568316322,0,1,1,-0.011532491568316322,0A0.011532491568316322,0.011532491568316322,0,1,1,0.011532491568316322,0" style="fill: #4c78a8; stroke-width: 2;"></path><path aria-label="time (day): Mon; time (hours): 07:00; Sum of count: 12121311" role="graphics-symbol" aria-roledescription="circle" transform="translate(150,10)" d="M0.02276353842569813,0A0.02276353842569813,0.02276353842569813,0,1,1,-0.02276353842569813,0A0.02276353842569813,0.02276353842569813,0,1,1,0.02276353842569813,0" style="fill: #4c78a8; stroke-width: 2;"></path><path aria-label="time (day): Mon; time (hours): 09:00; Sum of count: 1333111" role="graphics-symbol" aria-roledescription="circle" transform="translate(190,10)" d="M0.007549151303065726,0A0.007549151303065726,0.007549151303065726,0,1,1,-0.007549151303065726,0A0.007549151303065726,0.007549151303065726,0,1,1,0.007549151303065726,0" style="fill: #4c78a8; stroke-width: 2;"></path><path aria-label="time (day): Mon; time (hours): 10:00; Sum of count: 21120111" role="graphics-symbol" aria-roledescription="circle" transform="translate(210,10)" d="M0.03004782712551675,0A0.03004782712551675,0.03004782712551675,0,1,1,-0.03004782712551675,0A0.03004782712551675,0.03004782712551675,0,1,1,0.03004782712551675,0" style="fill: #4c78a8; stroke-width: 2;"></path><path aria-label="time (day): Mon; time (hours): 11:00; Sum of count: 41641211" role="graphics-symbol" aria-roledescription="circle" transform="translate(230,10)" d="M0.04219166355542159,0A0.04219166355542159,0.04219166355542159,0,1,1,-0.04219166355542159,0A0.04219166355542159,0.04219166355542159,0,1,1,0.04219166355542159,0" style="fill: #4c78a8; stroke-width: 2;"></path><path aria-label="time (day): Mon; time (hours): 13:00; Sum of count: 227111" role="graphics-symbol" aria-roledescription="circle" transform="translate(270,10)" d="M0.00311590392695741,0A0.00311590392695741,0.00311590392695741,0,1,1,-0.00311590392695741,0A0.00311590392695741,0.00311590392695741,0,1,1,0.00311590392695741,0" style="fill: #4c78a8; stroke-width: 2;"></path><path aria-label="time (day): Mon; time (hours): 14:00; Sum of count: 2191" role="graphics-symbol" aria-roledescription="circle" transform="translate(290,10)" d="M0.00030604561585884435,0A0.00030604561585884435,0.00030604561585884435,0,1,1,-0.00030604561585884435,0A0.00030604561585884435,0.00030604561585884435,0,1,1,0.00030604561585884435,0" style="fill: #4c78a8; stroke-width: 2;"></path><path aria-label="time (day): Tue; time (hours): 00:00; Sum of count: 532231" role="graphics-symbol" aria-roledescription="circle" transform="translate(10,30)" d="M0.004769963513934181,0A0.004769963513934181,0.004769963513934181,0,1,1,-0.004769963513934181,0A0.004769963513934181,0.004769963513934181,0,1,1,0.004769963513934181,0" style="fill: #4c78a8; stroke-width: 2;"></path><path aria-label="time (day): Tue; time (hours): 03:00; Sum of count: 1254211" role="graphics-symbol" aria-roledescription="circle" transform="translate(70,30)" d="M0.007322346504205305,0A0.007322346504205305,0.007322346504205305,0,1,1,-0.007322346504205305,0A0.007322346504205305,0.007322346504205305,0,1,1,0.007322346504205305,0" style="fill: #4c78a8; stroke-width: 2;"></path><path aria-label="time (day): Tue; time (hours): 04:00; Sum of count: 111111312" role="graphics-symbol" aria-roledescription="circle" transform="translate(90,30)" d="M0.06891981637263268,0A0.06891981637263268,0.06891981637263268,0,1,1,-0.06891981637263268,0A0.06891981637263268,0.06891981637263268,0,1,1,0.06891981637263268,0" style="fill: #4c78a8; stroke-width: 2;"></path><path aria-label="time (day): Tue; time (hours): 05:00; Sum of count: 111112" role="graphics-symbol" aria-roledescription="circle" transform="translate(110,30)" d="M0.0021794427040919095,0A0.0021794427040919095,0.0021794427040919095,0,1,1,-0.0021794427040919095,0A0.0021794427040919095,0.0021794427040919095,0,1,1,0.0021794427040919095,0" style="fill: #4c78a8; stroke-width: 2;"></path><path aria-label="time (day): Tue; time (hours): 07:00; Sum of count: 922" role="graphics-symbol" aria-roledescription="circle" transform="translate(150,30)" d="M0.00019853196189269245,0A0.00019853196189269245,0.00019853196189269245,0,1,1,-0.00019853196189269245,0A0.00019853196189269245,0.00019853196189269245,0,1,1,0.00019853196189269245,0" style="fill: #4c78a8; stroke-width: 2;"></path><path aria-label="time (day): Tue; time (hours): 11:00; Sum of count: 11118" role="graphics-symbol" aria-roledescription="circle" transform="translate(230,30)" d="M0.0006894111588239664,0A0.0006894111588239664,0.0006894111588239664,0,1,1,-0.0006894111588239664,0A0.0006894111588239664,0.0006894111588239664,0,1,1,0.0006894111588239664,0" style="fill: #4c78a8; stroke-width: 2;"></path><path aria-label="time (day): Tue; time (hours): 14:00; Sum of count: 24142" role="graphics-symbol" aria-roledescription="circle" transform="translate(290,30)" d="M0.0010159014883065517,0A0.0010159014883065517,0.0010159014883065517,0,1,1,-0.0010159014883065517,0A0.0010159014883065517,0.0010159014883065517,0,1,1,0.0010159014883065517,0" style="fill: #4c78a8; stroke-width: 2;"></path><path aria-label="time (day): Tue; time (hours): 21:00; Sum of count: 1127" role="graphics-symbol" aria-roledescription="circle" transform="translate(430,30)" d="M0.0002194961625114017,0A0.0002194961625114017,0.0002194961625114017,0,1,1,-0.0002194961625114017,0A0.0002194961625114017,0.0002194961625114017,0,1,1,0.0002194961625114017,0" style="fill: #4c78a8; stroke-width: 2;"></path><path aria-label="time (day): Wed; time (hours): 02:00; Sum of count: 132111121" role="graphics-symbol" aria-roledescription="circle" transform="translate(50,50)" d="M0.07515098247118779,0A0.07515098247118779,0.07515098247118779,0,1,1,-0.07515098247118779,0A0.07515098247118779,0.07515098247118779,0,1,1,0.07515098247118779,0" style="fill: #4c78a8; stroke-width: 2;"></path><path aria-label="time (day): Wed; time (hours): 03:00; Sum of count: 12121113" role="graphics-symbol" aria-roledescription="circle" transform="translate(70,50)" d="M0.02276335250525543,0A0.02276335250525543,0.02276335250525543,0,1,1,-0.02276335250525543,0A0.02276335250525543,0.02276335250525543,0,1,1,0.02276335250525543,0" style="fill: #4c78a8; stroke-width: 2;"></path><path aria-label="time (day): Wed; time (hours): 07:00; Sum of count: 12121" role="graphics-symbol" aria-roledescription="circle" transform="translate(150,50)" d="M0.000719837055587697,0A0.000719837055587697,0.000719837055587697,0,1,1,-0.000719837055587697,0A0.000719837055587697,0.000719837055587697,0,1,1,0.000719837055587697,0" style="fill: #4c78a8; stroke-width: 2;"></path><path aria-label="time (day): Wed; time (hours): 08:00; Sum of count: 1121111" role="graphics-symbol" aria-roledescription="circle" transform="translate(170,50)" d="M0.006922919484202334,0A0.006922919484202334,0.006922919484202334,0,1,1,-0.006922919484202334,0A0.006922919484202334,0.006922919484202334,0,1,1,0.006922919484202334,0" style="fill: #4c78a8; stroke-width: 2;"></path><path aria-label="time (day): Wed; time (hours): 09:00; Sum of count: 12111" role="graphics-symbol" aria-roledescription="circle" transform="translate(190,50)" d="M0.0007195400563360449,0A0.0007195400563360449,0.0007195400563360449,0,1,1,-0.0007195400563360449,0A0.0007195400563360449,0.0007195400563360449,0,1,1,0.0007195400563360449,0" style="fill: #4c78a8; stroke-width: 2;"></path><path aria-label="time (day): Wed; time (hours): 13:00; Sum of count: 111171" role="graphics-symbol" aria-roledescription="circle" transform="translate(270,50)" d="M0.002180021264707632,0A0.002180021264707632,0.002180021264707632,0,1,1,-0.002180021264707632,0A0.002180021264707632,0.002180021264707632,0,1,1,0.002180021264707632,0" style="fill: #4c78a8; stroke-width: 2;"></path><path aria-label="time (day): Wed; time (hours): 14:00; Sum of count: 22241" role="graphics-symbol" aria-roledescription="circle" transform="translate(290,50)" d="M0.0009750842213801593,0A0.0009750842213801593,0.0009750842213801593,0,1,1,-0.0009750842213801593,0A0.0009750842213801593,0.0009750842213801593,0,1,1,0.0009750842213801593,0" style="fill: #4c78a8; stroke-width: 2;"></path><path aria-label="time (day): Wed; time (hours): 18:00; Sum of count: 111221" role="graphics-symbol" aria-roledescription="circle" transform="translate(370,50)" d="M0.00218051145014258,0A0.00218051145014258,0.00218051145014258,0,1,1,-0.00218051145014258,0A0.00218051145014258,0.00218051145014258,0,1,1,0.00218051145014258,0" style="fill: #4c78a8; stroke-width: 2;"></path><path aria-label="time (day): Wed; time (hours): 19:00; Sum of count: 2131" role="graphics-symbol" aria-roledescription="circle" transform="translate(390,50)" d="M0.0003018260350531432,0A0.0003018260350531432,0.0003018260350531432,0,1,1,-0.0003018260350531432,0A0.0003018260350531432,0.0003018260350531432,0,1,1,0.0003018260350531432,0" style="fill: #4c78a8; stroke-width: 2;"></path><path aria-label="time (day): Thu; time (hours): 03:00; Sum of count: 1211211" role="graphics-symbol" aria-roledescription="circle" transform="translate(70,70)" d="M0.007195730293012401,0A0.007195730293012401,0.007195730293012401,0,1,1,-0.007195730293012401,0A0.007195730293012401,0.007195730293012401,0,1,1,0.007195730293012401,0" style="fill: #4c78a8; stroke-width: 2;"></path><path aria-label="time (day): Thu; time (hours): 06:00; Sum of count: 124112" role="graphics-symbol" aria-roledescription="circle" transform="translate(130,70)" d="M0.0023034132505982746,0A0.0023034132505982746,0.0023034132505982746,0,1,1,-0.0023034132505982746,0A0.0023034132505982746,0.0023034132505982746,0,1,1,0.0023034132505982746,0" style="fill: #4c78a8; stroke-width: 2;"></path><path aria-label="time (day): Thu; time (hours): 18:00; Sum of count: 1312319" role="graphics-symbol" aria-roledescription="circle" transform="translate(370,70)" d="M0.0074900494008744295,0A0.0074900494008744295,0.0074900494008744295,0,1,1,-0.0074900494008744295,0A0.0074900494008744295,0.0074900494008744295,0,1,1,0.0074900494008744295,0" style="fill: #4c78a8; stroke-width: 2;"></path><path aria-label="time (day): Fri; time (hours): 02:00; Sum of count: 235113" role="graphics-symbol" aria-roledescription="circle" transform="translate(50,90)" d="M0.003170321422329715,0A0.003170321422329715,0.003170321422329715,0,1,1,-0.003170321422329715,0A0.003170321422329715,0.003170321422329715,0,1,1,0.003170321422329715,0" style="fill: #4c78a8; stroke-width: 2;"></path><path aria-label="time (day): Fri; time (hours): 05:00; Sum of count: 111111212" role="graphics-symbol" aria-roledescription="circle" transform="translate(110,90)" d="M0.06891978535876442,0A0.06891978535876442,0.06891978535876442,0,1,1,-0.06891978535876442,0A0.06891978535876442,0.06891978535876442,0,1,1,0.06891978535876442,0" style="fill: #4c78a8; stroke-width: 2;"></path><path aria-label="time (day): Fri; time (hours): 07:00; Sum of count: 101" role="graphics-symbol" aria-roledescription="circle" transform="translate(150,90)" d="M0.00006570912146248904,0A0.00006570912146248904,0.00006570912146248904,0,1,1,-0.00006570912146248904,0A0.00006570912146248904,0.00006570912146248904,0,1,1,0.00006570912146248904,0" style="fill: #4c78a8; stroke-width: 2;"></path><path aria-label="time (day): Fri; time (hours): 08:00; Sum of count: 1111" role="graphics-symbol" aria-roledescription="circle" transform="translate(170,90)" d="M0.00021793250119496522,0A0.00021793250119496522,0.00021793250119496522,0,1,1,-0.00021793250119496522,0A0.00021793250119496522,0.00021793250119496522,0,1,1,0.00021793250119496522,0" style="fill: #4c78a8; stroke-width: 2;"></path><path aria-label="time (day): Fri; time (hours): 17:00; Sum of count: 2.11114111111e+12" role="graphics-symbol" aria-roledescription="circle" transform="translate(350,90)" d="M9.5,0A9.5,9.5,0,1,1,-9.5,0A9.5,9.5,0,1,1,9.5,0" style="fill: #4c78a8; stroke-width: 2;"></path><path aria-label="time (day): Fri; time (hours): 20:00; Sum of count: 4156234" role="graphics-symbol" aria-roledescription="circle" transform="translate(410,90)" d="M0.013329534073767703,0A0.013329534073767703,0.013329534073767703,0,1,1,-0.013329534073767703,0A0.013329534073767703,0.013329534073767703,0,1,1,0.013329534073767703,0" style="fill: #4c78a8; stroke-width: 2;"></path><path aria-label="time (day): Sat; time (hours): 05:00; Sum of count: 261391" role="graphics-symbol" aria-roledescription="circle" transform="translate(110,110)" d="M0.0033427991948701643,0A0.0033427991948701643,0.0033427991948701643,0,1,1,-0.0033427991948701643,0A0.0033427991948701643,0.0033427991948701643,0,1,1,0.0033427991948701643,0" style="fill: #4c78a8; stroke-width: 2;"></path><path aria-label="time (day): Sat; time (hours): 15:00; Sum of count: 231142" role="graphics-symbol" aria-roledescription="circle" transform="translate(310,110)" d="M0.0031434344407400825,0A0.0031434344407400825,0.0031434344407400825,0,1,1,-0.0031434344407400825,0A0.0031434344407400825,0.0031434344407400825,0,1,1,0.0031434344407400825,0" style="fill: #4c78a8; stroke-width: 2;"></path><path aria-label="time (day): Sat; time (hours): 23:00; Sum of count: 129124" role="graphics-symbol" aria-roledescription="circle" transform="translate(470,110)" d="M0.0023494621849021085,0A0.0023494621849021085,0.0023494621849021085,0,1,1,-0.0023494621849021085,0A0.0023494621849021085,0.0023494621849021085,0,1,1,0.0023494621849021085,0" style="fill: #4c78a8; stroke-width: 2;"></path><path aria-label="time (day): Sun; time (hours): 06:00; Sum of count: 225111241" role="graphics-symbol" aria-roledescription="circle" transform="translate(130,130)" d="M0.09809877063253612,0A0.09809877063253612,0.09809877063253612,0,1,1,-0.09809877063253612,0A0.09809877063253612,0.09809877063253612,0,1,1,0.09809877063253612,0" style="fill: #4c78a8; stroke-width: 2;"></path><path aria-label="time (day): Sun; time (hours): 09:00; Sum of count: 112711" role="graphics-symbol" aria-roledescription="circle" transform="translate(190,130)" d="M0.0021950687413019123,0A0.0021950687413019123,0.0021950687413019123,0,1,1,-0.0021950687413019123,0A0.0021950687413019123,0.0021950687413019123,0,1,1,0.0021950687413019123,0" style="fill: #4c78a8; stroke-width: 2;"></path><path aria-label="time (day): Sun; time (hours): 12:00; Sum of count: 210212122" role="graphics-symbol" aria-roledescription="circle" transform="translate(250,130)" d="M0.09479683809838317,0A0.09479683809838317,0.09479683809838317,0,1,1,-0.09479683809838317,0A0.09479683809838317,0.09479683809838317,0,1,1,0.09479683809838317,0" style="fill: #4c78a8; stroke-width: 2;"></path><path aria-label="time (day): Sun; time (hours): 14:00; Sum of count: 2111111" role="graphics-symbol" aria-roledescription="circle" transform="translate(290,130)" d="M0.009499932250721422,0A0.009499932250721422,0.009499932250721422,0,1,1,-0.009499932250721422,0A0.009499932250721422,0.009499932250721422,0,1,1,0.009499932250721422,0" style="fill: #4c78a8; stroke-width: 2;"></path><path aria-label="time (day): Sun; time (hours): 16:00; Sum of count: 12212824" role="graphics-symbol" aria-roledescription="circle" transform="translate(330,130)" d="M0.02284930648433072,0A0.02284930648433072,0.02284930648433072,0,1,1,-0.02284930648433072,0A0.02284930648433072,0.02284930648433072,0,1,1,0.02284930648433072,0" style="fill: #4c78a8; stroke-width: 2;"></path><path aria-label="time (day): Sun; time (hours): 22:00; Sum of count: 11111113" role="graphics-symbol" aria-roledescription="circle" transform="translate(450,130)" d="M0.021794341716252802,0A0.021794341716252802,0.021794341716252802,0,1,1,-0.021794341716252802,0A0.021794341716252802,0.021794341716252802,0,1,1,0.021794341716252802,0" style="fill: #4c78a8; stroke-width: 2;"></path><path aria-label="time (day): Mon; time (hours): 00:00; Sum of count: 1131211" role="graphics-symbol" aria-roledescription="circle" transform="translate(10,10)" d="M0.006954033581245171,0A0.006954033581245171,0.006954033581245171,0,1,1,-0.006954033581245171,0A0.006954033581245171,0.006954033581245171,0,1,1,0.006954033581245171,0" style="fill: #4c78a8; stroke-width: 2;"></path><path aria-label="time (day): Mon; time (hours): 01:00; Sum of count: 83111" role="graphics-symbol" aria-roledescription="circle" transform="translate(30,10)" d="M0.0018849256645250404,0A0.0018849256645250404,0.0018849256645250404,0,1,1,-0.0018849256645250404,0A0.0018849256645250404,0.0018849256645250404,0,1,1,0.0018849256645250404,0" style="fill: #4c78a8; stroke-width: 2;"></path><path aria-label="time (day): Mon; time (hours): 08:00; Sum of count: 311541531" role="graphics-symbol" aria-roledescription="circle" transform="translate(170,10)" d="M0.11540455446584456,0A0.11540455446584456,0.11540455446584456,0,1,1,-0.11540455446584456,0A0.11540455446584456,0.11540455446584456,0,1,1,0.11540455446584456,0" style="fill: #4c78a8; stroke-width: 2;"></path><path aria-label="time (day): Mon; time (hours): 16:00; Sum of count: 111122" role="graphics-symbol" aria-roledescription="circle" transform="translate(330,10)" d="M0.0021795407760224496,0A0.0021795407760224496,0.0021795407760224496,0,1,1,-0.0021795407760224496,0A0.0021795407760224496,0.0021795407760224496,0,1,1,0.0021795407760224496,0" style="fill: #4c78a8; stroke-width: 2;"></path><path aria-label="time (day): Mon; time (hours): 17:00; Sum of count: 311111" role="graphics-symbol" aria-roledescription="circle" transform="translate(350,10)" d="M0.0036468899425063477,0A0.0036468899425063477,0.0036468899425063477,0,1,1,-0.0036468899425063477,0A0.0036468899425063477,0.0036468899425063477,0,1,1,0.0036468899425063477,0" style="fill: #4c78a8; stroke-width: 2;"></path><path aria-label="time (day): Mon; time (hours): 23:00; Sum of count: 113111412" role="graphics-symbol" aria-roledescription="circle" transform="translate(470,10)" d="M0.06953735793653602,0A0.06953735793653602,0.06953735793653602,0,1,1,-0.06953735793653602,0A0.06953735793653602,0.06953735793653602,0,1,1,0.06953735793653602,0" style="fill: #4c78a8; stroke-width: 2;"></path><path aria-label="time (day): Tue; time (hours): 13:00; Sum of count: 152214" role="graphics-symbol" aria-roledescription="circle" transform="translate(270,30)" d="M0.002550893183045768,0A0.002550893183045768,0.002550893183045768,0,1,1,-0.002550893183045768,0A0.002550893183045768,0.002550893183045768,0,1,1,0.002550893183045768,0" style="fill: #4c78a8; stroke-width: 2;"></path><path aria-label="time (day): Tue; time (hours): 15:00; Sum of count: 131" role="graphics-symbol" aria-roledescription="circle" transform="translate(310,30)" d="M0.00007483428638419149,0A0.00007483428638419149,0.00007483428638419149,0,1,1,-0.00007483428638419149,0A0.00007483428638419149,0.00007483428638419149,0,1,1,0.00007483428638419149,0" style="fill: #4c78a8; stroke-width: 2;"></path><path aria-label="time (day): Tue; time (hours): 22:00; Sum of count: 11311211" role="graphics-symbol" aria-roledescription="circle" transform="translate(450,30)" d="M0.021989711202901007,0A0.021989711202901007,0.021989711202901007,0,1,1,-0.021989711202901007,0A0.021989711202901007,0.021989711202901007,0,1,1,0.021989711202901007,0" style="fill: #4c78a8; stroke-width: 2;"></path><path aria-label="time (day): Wed; time (hours): 04:00; Sum of count: 112111" role="graphics-symbol" aria-roledescription="circle" transform="translate(90,50)" d="M0.0021892183864419697,0A0.0021892183864419697,0.0021892183864419697,0,1,1,-0.0021892183864419697,0A0.0021892183864419697,0.0021892183864419697,0,1,1,0.0021892183864419697,0" style="fill: #4c78a8; stroke-width: 2;"></path><path aria-label="time (day): Wed; time (hours): 15:00; Sum of count: 32112" role="graphics-symbol" aria-roledescription="circle" transform="translate(310,50)" d="M0.0011716520354769532,0A0.0011716520354769532,0.0011716520354769532,0,1,1,-0.0011716520354769532,0A0.0011716520354769532,0.0011716520354769532,0,1,1,0.0011716520354769532,0" style="fill: #4c78a8; stroke-width: 2;"></path><path aria-label="time (day): Wed; time (hours): 22:00; Sum of count: 1121111" role="graphics-symbol" aria-roledescription="circle" transform="translate(450,50)" d="M0.006922919484202334,0A0.006922919484202334,0.006922919484202334,0,1,1,-0.006922919484202334,0A0.006922919484202334,0.006922919484202334,0,1,1,0.006922919484202334,0" style="fill: #4c78a8; stroke-width: 2;"></path><path aria-label="time (day): Thu; time (hours): 00:00; Sum of count: 213" role="graphics-symbol" aria-roledescription="circle" transform="translate(10,70)" d="M0.00009542337556562993,0A0.00009542337556562993,0.00009542337556562993,0,1,1,-0.00009542337556562993,0A0.00009542337556562993,0.00009542337556562993,0,1,1,0.00009542337556562993,0" style="fill: #4c78a8; stroke-width: 2;"></path><path aria-label="time (day): Thu; time (hours): 12:00; Sum of count: 61115" role="graphics-symbol" aria-roledescription="circle" transform="translate(250,70)" d="M0.0016163629305218645,0A0.0016163629305218645,0.0016163629305218645,0,1,1,-0.0016163629305218645,0A0.0016163629305218645,0.0016163629305218645,0,1,1,0.0016163629305218645,0" style="fill: #4c78a8; stroke-width: 2;"></path><path aria-label="time (day): Thu; time (hours): 15:00; Sum of count: 11111101" role="graphics-symbol" aria-roledescription="circle" transform="translate(310,70)" d="M0.0217943299473071,0A0.0217943299473071,0.0217943299473071,0,1,1,-0.0217943299473071,0A0.0217943299473071,0.0217943299473071,0,1,1,0.0217943299473071,0" style="fill: #4c78a8; stroke-width: 2;"></path><path aria-label="time (day): Fri; time (hours): 04:00; Sum of count: 2112213" role="graphics-symbol" aria-roledescription="circle" transform="translate(90,90)" d="M0.009502411409681309,0A0.009502411409681309,0.009502411409681309,0,1,1,-0.009502411409681309,0A0.009502411409681309,0.009502411409681309,0,1,1,0.009502411409681309,0" style="fill: #4c78a8; stroke-width: 2;"></path><path aria-label="time (day): Fri; time (hours): 14:00; Sum of count: 21262" role="graphics-symbol" aria-roledescription="circle" transform="translate(290,90)" d="M0.0009533821812466383,0A0.0009533821812466383,0.0009533821812466383,0,1,1,-0.0009533821812466383,0A0.0009533821812466383,0.0009533821812466383,0,1,1,0.0009533821812466383,0" style="fill: #4c78a8; stroke-width: 2;"></path><path aria-label="time (day): Fri; time (hours): 15:00; Sum of count: 16122112" role="graphics-symbol" aria-roledescription="circle" transform="translate(310,90)" d="M0.026252818781155193,0A0.026252818781155193,0.026252818781155193,0,1,1,-0.026252818781155193,0A0.026252818781155193,0.026252818781155193,0,1,1,0.026252818781155193,0" style="fill: #4c78a8; stroke-width: 2;"></path><path aria-label="time (day): Fri; time (hours): 18:00; Sum of count: 13221111" role="graphics-symbol" aria-roledescription="circle" transform="translate(370,90)" d="M0.023773818867385024,0A0.023773818867385024,0.023773818867385024,0,1,1,-0.023773818867385024,0A0.023773818867385024,0.023773818867385024,0,1,1,0.023773818867385024,0" style="fill: #4c78a8; stroke-width: 2;"></path><path aria-label="time (day): Fri; time (hours): 19:00; Sum of count: 1142118211" role="graphics-symbol" aria-roledescription="circle" transform="translate(390,90)" d="M0.22096348045163264,0A0.22096348045163264,0.22096348045163264,0,1,1,-0.22096348045163264,0A0.22096348045163264,0.22096348045163264,0,1,1,0.22096348045163264,0" style="fill: #4c78a8; stroke-width: 2;"></path><path aria-label="time (day): Sun; time (hours): 02:00; Sum of count: 5114421" role="graphics-symbol" aria-roledescription="circle" transform="translate(50,130)" d="M0.014786425896186192,0A0.014786425896186192,0.014786425896186192,0,1,1,-0.014786425896186192,0A0.014786425896186192,0.014786425896186192,0,1,1,0.014786425896186192,0" style="fill: #4c78a8; stroke-width: 2;"></path><path aria-label="time (day): Sun; time (hours): 03:00; Sum of count: 9141" role="graphics-symbol" aria-roledescription="circle" transform="translate(70,130)" d="M0.0006251177464457658,0A0.0006251177464457658,0.0006251177464457658,0,1,1,-0.0006251177464457658,0A0.0006251177464457658,0.0006251177464457658,0,1,1,0.0006251177464457658,0" style="fill: #4c78a8; stroke-width: 2;"></path><path aria-label="time (day): Sun; time (hours): 07:00; Sum of count: 13211" role="graphics-symbol" aria-roledescription="circle" transform="translate(150,130)" d="M0.000751506636319053,0A0.000751506636319053,0.000751506636319053,0,1,1,-0.000751506636319053,0A0.000751506636319053,0.000751506636319053,0,1,1,0.000751506636319053,0" style="fill: #4c78a8; stroke-width: 2;"></path><path aria-label="time (day): Sun; time (hours): 10:00; Sum of count: 1133" role="graphics-symbol" aria-roledescription="circle" transform="translate(210,130)" d="M0.00022007967128356831,0A0.00022007967128356831,0.00022007967128356831,0,1,1,-0.00022007967128356831,0A0.00022007967128356831,0.00022007967128356831,0,1,1,0.00022007967128356831,0" style="fill: #4c78a8; stroke-width: 2;"></path><path aria-label="time (day): Sun; time (hours): 18:00; Sum of count: 231311" role="graphics-symbol" aria-roledescription="circle" transform="translate(370,130)" d="M0.003144583395390378,0A0.003144583395390378,0.003144583395390378,0,1,1,-0.003144583395390378,0A0.003144583395390378,0.003144583395390378,0,1,1,0.003144583395390378,0" style="fill: #4c78a8; stroke-width: 2;"></path><path aria-label="time (day): Mon; time (hours): 03:00; Sum of count: 91223132" role="graphics-symbol" aria-roledescription="circle" transform="translate(70,10)" d="M0.06244784604560051,0A0.06244784604560051,0.06244784604560051,0,1,1,-0.06244784604560051,0A0.06244784604560051,0.06244784604560051,0,1,1,0.06244784604560051,0" style="fill: #4c78a8; stroke-width: 2;"></path><path aria-label="time (day): Mon; time (hours): 20:00; Sum of count: 351132" role="graphics-symbol" aria-roledescription="circle" transform="translate(410,10)" d="M0.003874361842980342,0A0.003874361842980342,0.003874361842980342,0,1,1,-0.003874361842980342,0A0.003874361842980342,0.003874361842980342,0,1,1,0.003874361842980342,0" style="fill: #4c78a8; stroke-width: 2;"></path><path aria-label="time (day): Mon; time (hours): 21:00; Sum of count: 111154" role="graphics-symbol" aria-roledescription="circle" transform="translate(430,10)" d="M0.0021798545765497335,0A0.0021798545765497335,0.0021798545765497335,0,1,1,-0.0021798545765497335,0A0.0021798545765497335,0.0021798545765497335,0,1,1,0.0021798545765497335,0" style="fill: #4c78a8; stroke-width: 2;"></path><path aria-label="time (day): Mon; time (hours): 22:00; Sum of count: 2111" role="graphics-symbol" aria-roledescription="circle" transform="translate(450,10)" d="M0.0003004063374593295,0A0.0003004063374593295,0.0003004063374593295,0,1,1,-0.0003004063374593295,0A0.0003004063374593295,0.0003004063374593295,0,1,1,0.0003004063374593295,0" style="fill: #4c78a8; stroke-width: 2;"></path><path aria-label="time (day): Tue; time (hours): 09:00; Sum of count: 111121" role="graphics-symbol" aria-roledescription="circle" transform="translate(190,30)" d="M0.002179530969027977,0A0.002179530969027977,0.002179530969027977,0,1,1,-0.002179530969027977,0A0.002179530969027977,0.002179530969027977,0,1,1,0.002179530969027977,0" style="fill: #4c78a8; stroke-width: 2;"></path><path aria-label="time (day): Tue; time (hours): 10:00; Sum of count: 11111" role="graphics-symbol" aria-roledescription="circle" transform="translate(210,30)" d="M0.0006891940946957133,0A0.0006891940946957133,0.0006891940946957133,0,1,1,-0.0006891940946957133,0A0.0006891940946957133,0.0006891940946957133,0,1,1,0.0006891940946957133,0" style="fill: #4c78a8; stroke-width: 2;"></path><path aria-label="time (day): Tue; time (hours): 12:00; Sum of count: 62414111" role="graphics-symbol" aria-roledescription="circle" transform="translate(250,30)" d="M0.05165428664899473,0A0.05165428664899473,0.05165428664899473,0,1,1,-0.05165428664899473,0A0.05165428664899473,0.05165428664899473,0,1,1,0.05165428664899473,0" style="fill: #4c78a8; stroke-width: 2;"></path><path aria-label="time (day): Tue; time (hours): 20:00; Sum of count: 1151" role="graphics-symbol" aria-roledescription="circle" transform="translate(410,30)" d="M0.00022182098813556598,0A0.00022182098813556598,0.00022182098813556598,0,1,1,-0.00022182098813556598,0A0.00022182098813556598,0.00022182098813556598,0,1,1,0.00022182098813556598,0" style="fill: #4c78a8; stroke-width: 2;"></path><path aria-label="time (day): Wed; time (hours): 11:00; Sum of count: 123122" role="graphics-symbol" aria-roledescription="circle" transform="translate(230,50)" d="M0.002294208077844763,0A0.002294208077844763,0.002294208077844763,0,1,1,-0.002294208077844763,0A0.002294208077844763,0.002294208077844763,0,1,1,0.002294208077844763,0" style="fill: #4c78a8; stroke-width: 2;"></path><path aria-label="time (day): Wed; time (hours): 17:00; Sum of count: 1123" role="graphics-symbol" aria-roledescription="circle" transform="translate(350,50)" d="M0.00021910629335369883,0A0.00021910629335369883,0.00021910629335369883,0,1,1,-0.00021910629335369883,0A0.00021910629335369883,0.00021910629335369883,0,1,1,0.00021910629335369883,0" style="fill: #4c78a8; stroke-width: 2;"></path><path aria-label="time (day): Wed; time (hours): 20:00; Sum of count: 1131221121" role="graphics-symbol" aria-roledescription="circle" transform="translate(410,50)" d="M0.21990683417230833,0A0.21990683417230833,0.21990683417230833,0,1,1,-0.21990683417230833,0A0.21990683417230833,0.21990683417230833,0,1,1,0.21990683417230833,0" style="fill: #4c78a8; stroke-width: 2;"></path><path aria-label="time (day): Thu; time (hours): 10:00; Sum of count: 1111311" role="graphics-symbol" aria-roledescription="circle" transform="translate(210,70)" d="M0.006892595312229182,0A0.006892595312229182,0.006892595312229182,0,1,1,-0.006892595312229182,0A0.006892595312229182,0.006892595312229182,0,1,1,0.006892595312229182,0" style="fill: #4c78a8; stroke-width: 2;"></path><path aria-label="time (day): Thu; time (hours): 16:00; Sum of count: 20121231251" role="graphics-symbol" aria-roledescription="circle" transform="translate(330,70)" d="M0.9274537252639683,0A0.9274537252639683,0.9274537252639683,0,1,1,-0.9274537252639683,0A0.9274537252639683,0.9274537252639683,0,1,1,0.9274537252639683,0" style="fill: #4c78a8; stroke-width: 2;"></path><path aria-label="time (day): Fri; time (hours): 03:00; Sum of count: 42" role="graphics-symbol" aria-roledescription="circle" transform="translate(70,90)" d="M0.000042373039604950113,0A0.000042373039604950113,0.000042373039604950113,0,1,1,-0.000042373039604950113,0A0.000042373039604950113,0.000042373039604950113,0,1,1,0.000042373039604950113,0" style="fill: #4c78a8; stroke-width: 2;"></path><path aria-label="time (day): Sat; time (hours): 03:00; Sum of count: 11" role="graphics-symbol" aria-roledescription="circle" transform="translate(70,110)" d="M0.000021685094364447327,0A0.000021685094364447327,0.000021685094364447327,0,1,1,-0.000021685094364447327,0A0.000021685094364447327,0.000021685094364447327,0,1,1,0.000021685094364447327,0" style="fill: #4c78a8; stroke-width: 2;"></path><path aria-label="time (day): Sat; time (hours): 11:00; Sum of count: 121522" role="graphics-symbol" aria-roledescription="circle" transform="translate(230,110)" d="M0.0022792524380669957,0A0.0022792524380669957,0.0022792524380669957,0,1,1,-0.0022792524380669957,0A0.0022792524380669957,0.0022792524380669957,0,1,1,0.0022792524380669957,0" style="fill: #4c78a8; stroke-width: 2;"></path><path aria-label="time (day): Sat; time (hours): 14:00; Sum of count: 1412131" role="graphics-symbol" aria-roledescription="circle" transform="translate(290,110)" d="M0.007769668100544017,0A0.007769668100544017,0.007769668100544017,0,1,1,-0.007769668100544017,0A0.007769668100544017,0.007769668100544017,0,1,1,0.007769668100544017,0" style="fill: #4c78a8; stroke-width: 2;"></path><path aria-label="time (day): Sat; time (hours): 20:00; Sum of count: 112213" role="graphics-symbol" aria-roledescription="circle" transform="translate(410,110)" d="M0.00219021404925899,0A0.00219021404925899,0.00219021404925899,0,1,1,-0.00219021404925899,0A0.00219021404925899,0.00219021404925899,0,1,1,0.00219021404925899,0" style="fill: #4c78a8; stroke-width: 2;"></path><path aria-label="time (day): Sun; time (hours): 08:00; Sum of count: 126111122" role="graphics-symbol" aria-roledescription="circle" transform="translate(170,130)" d="M0.0734246134077828,0A0.0734246134077828,0.0734246134077828,0,1,1,-0.0734246134077828,0A0.0734246134077828,0.0734246134077828,0,1,1,0.0734246134077828,0" style="fill: #4c78a8; stroke-width: 2;"></path><path aria-label="time (day): Sun; time (hours): 23:00; Sum of count: 111125111" role="graphics-symbol" aria-roledescription="circle" transform="translate(470,130)" d="M0.0689240958424892,0A0.0689240958424892,0.0689240958424892,0,1,1,-0.0689240958424892,0A0.0689240958424892,0.0689240958424892,0,1,1,0.0689240958424892,0" style="fill: #4c78a8; stroke-width: 2;"></path><path aria-label="time (day): Mon; time (hours): 15:00; Sum of count: 211114" role="graphics-symbol" aria-roledescription="circle" transform="translate(310,10)" d="M0.0030041629866017546,0A0.0030041629866017546,0.0030041629866017546,0,1,1,-0.0030041629866017546,0A0.0030041629866017546,0.0030041629866017546,0,1,1,0.0030041629866017546,0" style="fill: #4c78a8; stroke-width: 2;"></path><path aria-label="time (day): Tue; time (hours): 23:00; Sum of count: 132011" role="graphics-symbol" aria-roledescription="circle" transform="translate(470,30)" d="M0.0023755820454064345,0A0.0023755820454064345,0.0023755820454064345,0,1,1,-0.0023755820454064345,0A0.0023755820454064345,0.0023755820454064345,0,1,1,0.0023755820454064345,0" style="fill: #4c78a8; stroke-width: 2;"></path><path aria-label="time (day): Wed; time (hours): 05:00; Sum of count: 41111" role="graphics-symbol" aria-roledescription="circle" transform="translate(110,50)" d="M0.0013256961474721477,0A0.0013256961474721477,0.0013256961474721477,0,1,1,-0.0013256961474721477,0A0.0013256961474721477,0.0013256961474721477,0,1,1,0.0013256961474721477,0" style="fill: #4c78a8; stroke-width: 2;"></path><path aria-label="time (day): Wed; time (hours): 10:00; Sum of count: 1211111" role="graphics-symbol" aria-roledescription="circle" transform="translate(210,50)" d="M0.0071954332399463946,0A0.0071954332399463946,0.0071954332399463946,0,1,1,-0.0071954332399463946,0A0.0071954332399463946,0.0071954332399463946,0,1,1,0.0071954332399463946,0" style="fill: #4c78a8; stroke-width: 2;"></path><path aria-label="time (day): Wed; time (hours): 21:00; Sum of count: 1113311" role="graphics-symbol" aria-roledescription="circle" transform="translate(430,50)" d="M0.006898794744241995,0A0.006898794744241995,0.006898794744241995,0,1,1,-0.006898794744241995,0A0.006898794744241995,0.006898794744241995,0,1,1,0.006898794744241995,0" style="fill: #4c78a8; stroke-width: 2;"></path><path aria-label="time (day): Thu; time (hours): 02:00; Sum of count: 15134" role="graphics-symbol" aria-roledescription="circle" transform="translate(50,70)" d="M0.0008043440223099084,0A0.0008043440223099084,0.0008043440223099084,0,1,1,-0.0008043440223099084,0A0.0008043440223099084,0.0008043440223099084,0,1,1,0.0008043440223099084,0" style="fill: #4c78a8; stroke-width: 2;"></path><path aria-label="time (day): Thu; time (hours): 23:00; Sum of count: 1" role="graphics-symbol" aria-roledescription="circle" transform="translate(470,70)" d="M0.000006538301959120199,0A0.000006538301959120199,0.000006538301959120199,0,1,1,-0.000006538301959120199,0A0.000006538301959120199,0.000006538301959120199,0,1,1,0.000006538301959120199,0" style="fill: #4c78a8; stroke-width: 2;"></path><path aria-label="time (day): Fri; time (hours): 00:00; Sum of count: 13124" role="graphics-symbol" aria-roledescription="circle" transform="translate(10,90)" d="M0.0007490280550709206,0A0.0007490280550709206,0.0007490280550709206,0,1,1,-0.0007490280550709206,0A0.0007490280550709206,0.0007490280550709206,0,1,1,0.0007490280550709206,0" style="fill: #4c78a8; stroke-width: 2;"></path><path aria-label="time (day): Sat; time (hours): 02:00; Sum of count: 212" role="graphics-symbol" aria-roledescription="circle" transform="translate(50,110)" d="M0.00009519911350338629,0A0.00009519911350338629,0.00009519911350338629,0,1,1,-0.00009519911350338629,0A0.00009519911350338629,0.00009519911350338629,0,1,1,0.00009519911350338629,0" style="fill: #4c78a8; stroke-width: 2;"></path><path aria-label="time (day): Sat; time (hours): 07:00; Sum of count: 10111" role="graphics-symbol" aria-roledescription="circle" transform="translate(150,110)" d="M0.0006574489391996984,0A0.0006574489391996984,0.0006574489391996984,0,1,1,-0.0006574489391996984,0A0.0006574489391996984,0.0006574489391996984,0,1,1,0.0006574489391996984,0" style="fill: #4c78a8; stroke-width: 2;"></path><path aria-label="time (day): Sat; time (hours): 16:00; Sum of count: 2" role="graphics-symbol" aria-roledescription="circle" transform="translate(330,110)" d="M0.000009246555305478362,0A0.000009246555305478362,0.000009246555305478362,0,1,1,-0.000009246555305478362,0A0.000009246555305478362,0.000009246555305478362,0,1,1,0.000009246555305478362,0" style="fill: #4c78a8; stroke-width: 2;"></path><path aria-label="time (day): Sun; time (hours): 01:00; Sum of count: 111" role="graphics-symbol" aria-roledescription="circle" transform="translate(30,130)" d="M0.00006888528557288914,0A0.00006888528557288914,0.00006888528557288914,0,1,1,-0.00006888528557288914,0A0.00006888528557288914,0.00006888528557288914,0,1,1,0.00006888528557288914,0" style="fill: #4c78a8; stroke-width: 2;"></path><path aria-label="time (day): Sun; time (hours): 11:00; Sum of count: 1211512" role="graphics-symbol" aria-roledescription="circle" transform="translate(230,130)" d="M0.0071966243487430566,0A0.0071966243487430566,0.0071966243487430566,0,1,1,-0.0071966243487430566,0A0.0071966243487430566,0.0071966243487430566,0,1,1,0.0071966243487430566,0" style="fill: #4c78a8; stroke-width: 2;"></path><path aria-label="time (day): Mon; time (hours): 18:00; Sum of count: 1111" role="graphics-symbol" aria-roledescription="circle" transform="translate(370,10)" d="M0.00021793250119496522,0A0.00021793250119496522,0.00021793250119496522,0,1,1,-0.00021793250119496522,0A0.00021793250119496522,0.00021793250119496522,0,1,1,0.00021793250119496522,0" style="fill: #4c78a8; stroke-width: 2;"></path><path aria-label="time (day): Mon; time (hours): 19:00; Sum of count: 111121" role="graphics-symbol" aria-roledescription="circle" transform="translate(390,10)" d="M0.002179530969027977,0A0.002179530969027977,0.002179530969027977,0,1,1,-0.002179530969027977,0A0.002179530969027977,0.002179530969027977,0,1,1,0.002179530969027977,0" style="fill: #4c78a8; stroke-width: 2;"></path><path aria-label="time (day): Tue; time (hours): 06:00; Sum of count: 121" role="graphics-symbol" aria-roledescription="circle" transform="translate(130,30)" d="M0.00007192132155032218,0A0.00007192132155032218,0.00007192132155032218,0,1,1,-0.00007192132155032218,0A0.00007192132155032218,0.00007192132155032218,0,1,1,0.00007192132155032218,0" style="fill: #4c78a8; stroke-width: 2;"></path><path aria-label="time (day): Tue; time (hours): 17:00; Sum of count: 226" role="graphics-symbol" aria-roledescription="circle" transform="translate(350,30)" d="M0.00009829223116275017,0A0.00009829223116275017,0.00009829223116275017,0,1,1,-0.00009829223116275017,0A0.00009829223116275017,0.00009829223116275017,0,1,1,0.00009829223116275017,0" style="fill: #4c78a8; stroke-width: 2;"></path><path aria-label="time (day): Tue; time (hours): 18:00; Sum of count: 7213141" role="graphics-symbol" aria-roledescription="circle" transform="translate(370,30)" d="M0.017560108081362373,0A0.017560108081362373,0.017560108081362373,0,1,1,-0.017560108081362373,0A0.017560108081362373,0.017560108081362373,0,1,1,0.017560108081362373,0" style="fill: #4c78a8; stroke-width: 2;"></path><path aria-label="time (day): Thu; time (hours): 17:00; Sum of count: 627121" role="graphics-symbol" aria-roledescription="circle" transform="translate(350,70)" d="M0.0051777448546068494,0A0.0051777448546068494,0.0051777448546068494,0,1,1,-0.0051777448546068494,0A0.0051777448546068494,0.0051777448546068494,0,1,1,0.0051777448546068494,0" style="fill: #4c78a8; stroke-width: 2;"></path><path aria-label="time (day): Fri; time (hours): 22:00; Sum of count: 1111" role="graphics-symbol" aria-roledescription="circle" transform="translate(450,90)" d="M0.00021793250119496522,0A0.00021793250119496522,0.00021793250119496522,0,1,1,-0.00021793250119496522,0A0.00021793250119496522,0.00021793250119496522,0,1,1,0.00021793250119496522,0" style="fill: #4c78a8; stroke-width: 2;"></path><path aria-label="time (day): Sat; time (hours): 01:00; Sum of count: 11" role="graphics-symbol" aria-roledescription="circle" transform="translate(30,110)" d="M0.000021685094364447327,0A0.000021685094364447327,0.000021685094364447327,0,1,1,-0.000021685094364447327,0A0.000021685094364447327,0.000021685094364447327,0,1,1,0.000021685094364447327,0" style="fill: #4c78a8; stroke-width: 2;"></path><path aria-label="time (day): Sat; time (hours): 19:00; Sum of count: 112661" role="graphics-symbol" aria-roledescription="circle" transform="translate(390,110)" d="M0.0021945818074100886,0A0.0021945818074100886,0.0021945818074100886,0,1,1,-0.0021945818074100886,0A0.0021945818074100886,0.0021945818074100886,0,1,1,0.0021945818074100886,0" style="fill: #4c78a8; stroke-width: 2;"></path><path aria-label="time (day): Sun; time (hours): 05:00; Sum of count: 1541" role="graphics-symbol" aria-roledescription="circle" transform="translate(110,130)" d="M0.000256664788889724,0A0.000256664788889724,0.000256664788889724,0,1,1,-0.000256664788889724,0A0.000256664788889724,0.000256664788889724,0,1,1,0.000256664788889724,0" style="fill: #4c78a8; stroke-width: 2;"></path><path aria-label="time (day): Sun; time (hours): 17:00; Sum of count: 12124" role="graphics-symbol" aria-roledescription="circle" transform="translate(350,130)" d="M0.0007199261314709246,0A0.0007199261314709246,0.0007199261314709246,0,1,1,-0.0007199261314709246,0A0.0007199261314709246,0.0007199261314709246,0,1,1,0.0007199261314709246,0" style="fill: #4c78a8; stroke-width: 2;"></path><path aria-label="time (day): Mon; time (hours): 05:00; Sum of count: 13211" role="graphics-symbol" aria-roledescription="circle" transform="translate(110,10)" d="M0.000751506636319053,0A0.000751506636319053,0.000751506636319053,0,1,1,-0.000751506636319053,0A0.000751506636319053,0.000751506636319053,0,1,1,0.000751506636319053,0" style="fill: #4c78a8; stroke-width: 2;"></path><path aria-label="time (day): Tue; time (hours): 02:00; Sum of count: 2111211" role="graphics-symbol" aria-roledescription="circle" transform="translate(50,30)" d="M0.009500157246464283,0A0.009500157246464283,0.009500157246464283,0,1,1,-0.009500157246464283,0A0.009500157246464283,0.009500157246464283,0,1,1,0.009500157246464283,0" style="fill: #4c78a8; stroke-width: 2;"></path><path aria-label="time (day): Wed; time (hours): 01:00; Sum of count: 7311" role="graphics-symbol" aria-roledescription="circle" transform="translate(30,50)" d="M0.0005590534935322653,0A0.0005590534935322653,0.0005590534935322653,0,1,1,-0.0005590534935322653,0A0.0005590534935322653,0.0005590534935322653,0,1,1,0.0005590534935322653,0" style="fill: #4c78a8; stroke-width: 2;"></path><path aria-label="time (day): Thu; time (hours): 13:00; Sum of count: 121" role="graphics-symbol" aria-roledescription="circle" transform="translate(270,70)" d="M0.00007192132155032218,0A0.00007192132155032218,0.00007192132155032218,0,1,1,-0.00007192132155032218,0A0.00007192132155032218,0.00007192132155032218,0,1,1,0.00007192132155032218,0" style="fill: #4c78a8; stroke-width: 2;"></path><path aria-label="time (day): Thu; time (hours): 20:00; Sum of count: 1113146" role="graphics-symbol" aria-roledescription="circle" transform="translate(410,70)" d="M0.006898283501960255,0A0.006898283501960255,0.006898283501960255,0,1,1,-0.006898283501960255,0A0.006898283501960255,0.006898283501960255,0,1,1,0.006898283501960255,0" style="fill: #4c78a8; stroke-width: 2;"></path><path aria-label="time (day): Fri; time (hours): 16:00; Sum of count: 151132" role="graphics-symbol" aria-roledescription="circle" transform="translate(330,90)" d="M0.002541810612263437,0A0.002541810612263437,0.002541810612263437,0,1,1,-0.002541810612263437,0A0.002541810612263437,0.002541810612263437,0,1,1,0.002541810612263437,0" style="fill: #4c78a8; stroke-width: 2;"></path><path aria-label="time (day): Fri; time (hours): 06:00; Sum of count: 121335" role="graphics-symbol" aria-roledescription="circle" transform="translate(130,90)" d="M0.002277498087822519,0A0.002277498087822519,0.002277498087822519,0,1,1,-0.002277498087822519,0A0.002277498087822519,0.002277498087822519,0,1,1,0.002277498087822519,0" style="fill: #4c78a8; stroke-width: 2;"></path><path aria-label="time (day): Sun; time (hours): 04:00; Sum of count: 521191" role="graphics-symbol" aria-roledescription="circle" transform="translate(90,130)" d="M0.004720232900076859,0A0.004720232900076859,0.004720232900076859,0,1,1,-0.004720232900076859,0A0.004720232900076859,0.004720232900076859,0,1,1,0.004720232900076859,0" style="fill: #4c78a8; stroke-width: 2;"></path><path aria-label="time (day): Wed; time (hours): 06:00; Sum of count: 11211" role="graphics-symbol" aria-roledescription="circle" transform="translate(130,50)" d="M0.0006922885521329291,0A0.0006922885521329291,0.0006922885521329291,0,1,1,-0.0006922885521329291,0A0.0006922885521329291,0.0006922885521329291,0,1,1,0.0006922885521329291,0" style="fill: #4c78a8; stroke-width: 2;"></path><path aria-label="time (day): Thu; time (hours): 07:00; Sum of count: 521" role="graphics-symbol" aria-roledescription="circle" transform="translate(150,70)" d="M0.0001492395172097486,0A0.0001492395172097486,0.0001492395172097486,0,1,1,-0.0001492395172097486,0A0.0001492395172097486,0.0001492395172097486,0,1,1,0.0001492395172097486,0" style="fill: #4c78a8; stroke-width: 2;"></path><path aria-label="time (day): Tue; time (hours): 19:00; Sum of count: 351143" role="graphics-symbol" aria-roledescription="circle" transform="translate(390,30)" d="M0.0038744225290563788,0A0.0038744225290563788,0.0038744225290563788,0,1,1,-0.0038744225290563788,0A0.0038744225290563788,0.0038744225290563788,0,1,1,0.0038744225290563788,0" style="fill: #4c78a8; stroke-width: 2;"></path><path aria-label="time (day): Wed; time (hours): 00:00; Sum of count: 2112116" role="graphics-symbol" aria-roledescription="circle" transform="translate(10,50)" d="M0.00950219321566175,0A0.00950219321566175,0.00950219321566175,0,1,1,-0.00950219321566175,0A0.00950219321566175,0.00950219321566175,0,1,1,0.00950219321566175,0" style="fill: #4c78a8; stroke-width: 2;"></path><path aria-label="time (day): Thu; time (hours): 21:00; Sum of count: 29" role="graphics-symbol" aria-roledescription="circle" transform="translate(430,70)" d="M0.00003520983360867267,0A0.00003520983360867267,0.00003520983360867267,0,1,1,-0.00003520983360867267,0A0.00003520983360867267,0.00003520983360867267,0,1,1,0.00003520983360867267,0" style="fill: #4c78a8; stroke-width: 2;"></path><path aria-label="time (day): Fri; time (hours): 11:00; Sum of count: 18322" role="graphics-symbol" aria-roledescription="circle" transform="translate(230,90)" d="M0.0008850165928067173,0A0.0008850165928067173,0.0008850165928067173,0,1,1,-0.0008850165928067173,0A0.0008850165928067173,0.0008850165928067173,0,1,1,0.0008850165928067173,0" style="fill: #4c78a8; stroke-width: 2;"></path><path aria-label="time (day): Sat; time (hours): 04:00; Sum of count: 101" role="graphics-symbol" aria-roledescription="circle" transform="translate(90,110)" d="M0.00006570912146248904,0A0.00006570912146248904,0.00006570912146248904,0,1,1,-0.00006570912146248904,0A0.00006570912146248904,0.00006570912146248904,0,1,1,0.00006570912146248904,0" style="fill: #4c78a8; stroke-width: 2;"></path><path aria-label="time (day): Mon; time (hours): 12:00; Sum of count: 3148" role="graphics-symbol" aria-roledescription="circle" transform="translate(250,10)" d="M0.00036684477319049135,0A0.00036684477319049135,0.00036684477319049135,0,1,1,-0.00036684477319049135,0A0.00036684477319049135,0.00036684477319049135,0,1,1,0.00036684477319049135,0" style="fill: #4c78a8; stroke-width: 2;"></path><path aria-label="time (day): Tue; time (hours): 16:00; Sum of count: 11411" role="graphics-symbol" aria-roledescription="circle" transform="translate(330,30)" d="M0.0006984363377689008,0A0.0006984363377689008,0.0006984363377689008,0,1,1,-0.0006984363377689008,0A0.0006984363377689008,0.0006984363377689008,0,1,1,0.0006984363377689008,0" style="fill: #4c78a8; stroke-width: 2;"></path><path aria-label="time (day): Wed; time (hours): 12:00; Sum of count: 111" role="graphics-symbol" aria-roledescription="circle" transform="translate(250,50)" d="M0.00006888528557288914,0A0.00006888528557288914,0.00006888528557288914,0,1,1,-0.00006888528557288914,0A0.00006888528557288914,0.00006888528557288914,0,1,1,0.00006888528557288914,0" style="fill: #4c78a8; stroke-width: 2;"></path><path aria-label="time (day): Wed; time (hours): 23:00; Sum of count: 222" role="graphics-symbol" aria-roledescription="circle" transform="translate(470,50)" d="M0.00009741850510512351,0A0.00009741850510512351,0.00009741850510512351,0,1,1,-0.00009741850510512351,0A0.00009741850510512351,0.00009741850510512351,0,1,1,0.00009741850510512351,0" style="fill: #4c78a8; stroke-width: 2;"></path><path aria-label="time (day): Tue; time (hours): 01:00; Sum of count: 34311" role="graphics-symbol" aria-roledescription="circle" transform="translate(30,30)" d="M0.001211104622385604,0A0.001211104622385604,0.001211104622385604,0,1,1,-0.001211104622385604,0A0.001211104622385604,0.001211104622385604,0,1,1,0.001211104622385604,0" style="fill: #4c78a8; stroke-width: 2;"></path><path aria-label="time (day): Sat; time (hours): 09:00; Sum of count: 171" role="graphics-symbol" aria-roledescription="circle" transform="translate(190,110)" d="M0.00008549939250647684,0A0.00008549939250647684,0.00008549939250647684,0,1,1,-0.00008549939250647684,0A0.00008549939250647684,0.00008549939250647684,0,1,1,0.00008549939250647684,0" style="fill: #4c78a8; stroke-width: 2;"></path><path aria-label="time (day): Mon; time (hours): 02:00; Sum of count: 341111" role="graphics-symbol" aria-roledescription="circle" transform="translate(50,10)" d="M0.0038186762140842738,0A0.0038186762140842738,0.0038186762140842738,0,1,1,-0.0038186762140842738,0A0.0038186762140842738,0.0038186762140842738,0,1,1,0.0038186762140842738,0" style="fill: #4c78a8; stroke-width: 2;"></path><path aria-label="time (day): Tue; time (hours): 08:00; Sum of count: 121" role="graphics-symbol" aria-roledescription="circle" transform="translate(170,30)" d="M0.00007192132155032218,0A0.00007192132155032218,0.00007192132155032218,0,1,1,-0.00007192132155032218,0A0.00007192132155032218,0.00007192132155032218,0,1,1,0.00007192132155032218,0" style="fill: #4c78a8; stroke-width: 2;"></path><path aria-label="time (day): Sat; time (hours): 06:00; Sum of count: 1" role="graphics-symbol" aria-roledescription="circle" transform="translate(130,110)" d="M0.000006538301959120199,0A0.000006538301959120199,0.000006538301959120199,0,1,1,-0.000006538301959120199,0A0.000006538301959120199,0.000006538301959120199,0,1,1,0.000006538301959120199,0" style="fill: #4c78a8; stroke-width: 2;"></path><path aria-label="time (day): Wed; time (hours): 16:00; Sum of count: 1" role="graphics-symbol" aria-roledescription="circle" transform="translate(330,50)" d="M0.000006538301959120199,0A0.000006538301959120199,0.000006538301959120199,0,1,1,-0.000006538301959120199,0A0.000006538301959120199,0.000006538301959120199,0,1,1,0.000006538301959120199,0" style="fill: #4c78a8; stroke-width: 2;"></path></g><g class="mark-group role-legend" role="graphics-symbol" aria-roledescription="legend" aria-label="Symbol legend titled 'Sum of count' for size with values from 0 to 2,111,141,111,111"><g transform="translate(498,0)"><path class="background" aria-hidden="true" d="M0,0h114v93h-114Z" style="pointer-events: none;"></path><g><g class="mark-group role-legend-entry"><g transform="translate(0,16)"><path class="background" aria-hidden="true" d="M0,0h0v0h0Z" style="pointer-events: none;"></path><g><g class="mark-group role-scope" role="graphics-object" aria-roledescription="group mark container"><g transform="translate(0,0)"><path class="background" aria-hidden="true" d="M0,0h114v11.62327765273918h-114Z" style="pointer-events: none; opacity: 1;"></path><g><g class="mark-symbol role-legend-symbol" style="pointer-events: none;"><path transform="translate(10,5.5)" d="M4.623277652739181,0A4.623277652739181,4.623277652739181,0,1,1,-4.623277652739181,0A4.623277652739181,4.623277652739181,0,1,1,4.623277652739181,0" style="fill: #4c78a8; stroke-width: 1.5; opacity: 1;"></path></g><g class="mark-text role-legend-label" style="pointer-events: none;"><text text-anchor="start" transform="translate(24,8.5)" style="font-family: sans-serif; font-size: 10px; fill: #000; opacity: 1;">500,000,000,000</text></g></g><path class="foreground" aria-hidden="true" d="" style="pointer-events: none; display: none;"></path></g><g transform="translate(0,15)"><path class="background" aria-hidden="true" d="M0,0h114v15.538301959120197h-114Z" style="pointer-events: none; opacity: 1;"></path><g><g class="mark-symbol role-legend-symbol" style="pointer-events: none;"><path transform="translate(10,7.5)" d="M6.538301959120198,0A6.538301959120198,6.538301959120198,0,1,1,-6.538301959120198,0A6.538301959120198,6.538301959120198,0,1,1,6.538301959120198,0" style="fill: #4c78a8; stroke-width: 1.5; opacity: 1;"></path></g><g class="mark-text role-legend-label" style="pointer-events: none;"><text text-anchor="start" transform="translate(24,10.5)" style="font-family: sans-serif; font-size: 10px; fill: #000; opacity: 1;">1,000,000,000,000</text></g></g><path class="foreground" aria-hidden="true" d="" style="pointer-events: none; display: none;"></path></g><g transform="translate(0,34)"><path class="background" aria-hidden="true" d="M0,0h114v18.507751792042043h-114Z" style="pointer-events: none; opacity: 1;"></path><g><g class="mark-symbol role-legend-symbol" style="pointer-events: none;"><path transform="translate(10,9)" d="M8.007751792042042,0A8.007751792042042,8.007751792042042,0,1,1,-8.007751792042042,0A8.007751792042042,8.007751792042042,0,1,1,8.007751792042042,0" style="fill: #4c78a8; stroke-width: 1.5; opacity: 1;"></path></g><g class="mark-text role-legend-label" style="pointer-events: none;"><text text-anchor="start" transform="translate(24,12)" style="font-family: sans-serif; font-size: 10px; fill: #000; opacity: 1;">1,500,000,000,000</text></g></g><path class="foreground" aria-hidden="true" d="" style="pointer-events: none; display: none;"></path></g><g transform="translate(0,56)"><path class="background" aria-hidden="true" d="M0,0h114v20.746555305478353h-114Z" style="pointer-events: none; opacity: 1;"></path><g><g class="mark-symbol role-legend-symbol" style="pointer-events: none;"><path transform="translate(10,10)" d="M9.246555305478362,0A9.246555305478362,9.246555305478362,0,1,1,-9.246555305478362,0A9.246555305478362,9.246555305478362,0,1,1,9.246555305478362,0" style="fill: #4c78a8; stroke-width: 1.5; opacity: 1;"></path></g><g class="mark-text role-legend-label" style="pointer-events: none;"><text text-anchor="start" transform="translate(24,13)" style="font-family: sans-serif; font-size: 10px; fill: #000; opacity: 1;">2,000,000,000,000</text></g></g><path class="foreground" aria-hidden="true" d="" style="pointer-events: none; display: none;"></path></g></g></g><path class="foreground" aria-hidden="true" d="" style="pointer-events: none; display: none;"></path></g></g><g class="mark-text role-legend-title" style="pointer-events: none;"><text text-anchor="start" transform="translate(0,9)" style="font-family: sans-serif; font-size: 11px; font-weight: bold; fill: #000; opacity: 1;">Sum of count</text></g></g><path class="foreground" aria-hidden="true" d="" style="pointer-events: none; display: none;"></path></g></g></g><path class="foreground" aria-hidden="true" d="" style="display: none;"></path></g></g></g></svg>